<mxfile host="Electron" agent="Mozilla/5.0 (Windows NT 10.0; Win64; x64) AppleWebKit/537.36 (KHTML, like Gecko) draw.io/28.0.6 Chrome/138.0.7204.100 Electron/37.2.3 Safari/537.36" border="50" scale="3" compressed="false" locked="false" version="28.0.6">
  <diagram name="Blank" id="YmL12bMKpDGza6XwsDPr">
    <mxGraphModel dx="1215" dy="549" grid="0" gridSize="10" guides="1" tooltips="1" connect="1" arrows="1" fold="1" page="0" pageScale="1" pageWidth="827" pageHeight="1169" background="none" math="1" shadow="0">
      <root>
        <mxCell id="X5NqExCQtvZxIxQ7pmgY-0" />
        <mxCell id="1" parent="X5NqExCQtvZxIxQ7pmgY-0" />
        <mxCell id="Gr0Zq-AI6Quabplr0KPa-179" value="&lt;font style=&quot;font-size: 16px;&quot; face=&quot;Helvetica&quot;&gt;Mindmap&lt;/font&gt;" style="swimlane;html=1;startSize=20;horizontal=1;containerType=tree;labelBackgroundColor=none;strokeColor=#D4E1F5;strokeWidth=1;fillColor=none;fontFamily=Comic Sans MS;fontSize=9;swimlaneLine=0;dashed=1;collapsible=0;swimlaneHead=0;swimlaneBody=0;" parent="1" vertex="1">
          <mxGeometry x="-68" y="45" width="728.5" height="436" as="geometry" />
        </mxCell>
        <mxCell id="DIQOQRttkNtVmlvTTe51-2" value="&lt;font style=&quot;font-size: 10px;&quot;&gt;Revista&lt;/font&gt;" style="ellipse;whiteSpace=wrap;html=1;fillColor=#f8cecc;strokeColor=#b85450;fontStyle=1;movable=1;resizable=1;rotatable=1;deletable=1;editable=1;locked=0;connectable=1;" parent="Gr0Zq-AI6Quabplr0KPa-179" vertex="1">
          <mxGeometry x="292.5" y="206" width="98" height="51" as="geometry" />
        </mxCell>
        <mxCell id="DIQOQRttkNtVmlvTTe51-3" value="&lt;span style=&quot;font-size: 10px;&quot;&gt;Numero de Revista&lt;/span&gt;" style="ellipse;whiteSpace=wrap;html=1;fillColor=#d5e8d4;strokeColor=#82b366;fontStyle=1" parent="Gr0Zq-AI6Quabplr0KPa-179" vertex="1">
          <mxGeometry x="187" y="159" width="83.5" height="40" as="geometry" />
        </mxCell>
        <mxCell id="DIQOQRttkNtVmlvTTe51-4" value="&lt;span style=&quot;font-size: 10px;&quot;&gt;Suscripciones&lt;/span&gt;" style="ellipse;whiteSpace=wrap;html=1;fillColor=#d5e8d4;strokeColor=#82b366;fontStyle=1;movable=1;resizable=1;rotatable=1;deletable=1;editable=1;locked=0;connectable=1;" parent="Gr0Zq-AI6Quabplr0KPa-179" vertex="1">
          <mxGeometry x="424" y="286" width="78" height="28" as="geometry" />
        </mxCell>
        <mxCell id="DIQOQRttkNtVmlvTTe51-5" value="&lt;span style=&quot;font-size: 10px;&quot;&gt;Evaluaciones&lt;/span&gt;" style="ellipse;whiteSpace=wrap;html=1;fillColor=#d5e8d4;strokeColor=#82b366;fontStyle=1" parent="Gr0Zq-AI6Quabplr0KPa-179" vertex="1">
          <mxGeometry x="187" y="269" width="77" height="34.5" as="geometry" />
        </mxCell>
        <mxCell id="DIQOQRttkNtVmlvTTe51-11" value="&lt;span style=&quot;font-size: 10px;&quot;&gt;Particular&lt;/span&gt;" style="ellipse;whiteSpace=wrap;html=1;fillColor=#f5f5f5;fontColor=#333333;strokeColor=#666666;" parent="Gr0Zq-AI6Quabplr0KPa-179" vertex="1">
          <mxGeometry x="546.5" y="379" width="68" height="38" as="geometry" />
        </mxCell>
        <mxCell id="DIQOQRttkNtVmlvTTe51-12" value="&lt;span style=&quot;font-size: 10px;&quot;&gt;Extensión&lt;/span&gt;" style="ellipse;whiteSpace=wrap;html=1;fillColor=#dae8fc;strokeColor=#6c8ebf;" parent="Gr0Zq-AI6Quabplr0KPa-179" vertex="1">
          <mxGeometry x="99" y="208" width="70.25" height="35" as="geometry" />
        </mxCell>
        <mxCell id="DIQOQRttkNtVmlvTTe51-13" value="&lt;span style=&quot;font-size: 10px;&quot;&gt;Empresas&lt;/span&gt;" style="ellipse;whiteSpace=wrap;html=1;fillColor=#f5f5f5;fontColor=#333333;strokeColor=#666666;" parent="Gr0Zq-AI6Quabplr0KPa-179" vertex="1">
          <mxGeometry x="622" y="379" width="65" height="34" as="geometry" />
        </mxCell>
        <mxCell id="DIQOQRttkNtVmlvTTe51-27" value="&lt;span style=&quot;font-size: 10px;&quot;&gt;Institucional&lt;/span&gt;" style="ellipse;whiteSpace=wrap;html=1;fillColor=#f5f5f5;fontColor=#333333;strokeColor=#666666;" parent="Gr0Zq-AI6Quabplr0KPa-179" vertex="1">
          <mxGeometry x="628" y="321" width="65" height="34" as="geometry" />
        </mxCell>
        <mxCell id="DIQOQRttkNtVmlvTTe51-28" value="&lt;span style=&quot;font-size: 10px;&quot;&gt;Propuesta de artículos&lt;/span&gt;" style="ellipse;whiteSpace=wrap;html=1;fillColor=#dae8fc;strokeColor=#6c8ebf;" parent="Gr0Zq-AI6Quabplr0KPa-179" vertex="1">
          <mxGeometry x="95" y="148" width="89" height="32" as="geometry" />
        </mxCell>
        <mxCell id="HJ7bpyB-UAddalIUBTvr-2" value="" style="endArrow=none;html=1;rounded=0;entryX=0;entryY=0;entryDx=0;entryDy=0;exitX=1;exitY=0.5;exitDx=0;exitDy=0;movable=1;resizable=1;rotatable=1;deletable=1;editable=1;locked=0;connectable=1;" parent="Gr0Zq-AI6Quabplr0KPa-179" source="DIQOQRttkNtVmlvTTe51-3" target="DIQOQRttkNtVmlvTTe51-2" edge="1">
          <mxGeometry width="50" height="50" relative="1" as="geometry">
            <mxPoint x="217" y="309" as="sourcePoint" />
            <mxPoint x="267" y="259" as="targetPoint" />
          </mxGeometry>
        </mxCell>
        <mxCell id="HJ7bpyB-UAddalIUBTvr-21" value="" style="endArrow=none;html=1;rounded=0;entryX=0;entryY=0;entryDx=0;entryDy=0;exitX=1;exitY=0.5;exitDx=0;exitDy=0;" parent="Gr0Zq-AI6Quabplr0KPa-179" source="DIQOQRttkNtVmlvTTe51-28" target="DIQOQRttkNtVmlvTTe51-3" edge="1">
          <mxGeometry width="50" height="50" relative="1" as="geometry">
            <mxPoint x="142" y="71" as="sourcePoint" />
            <mxPoint x="213" y="134" as="targetPoint" />
          </mxGeometry>
        </mxCell>
        <mxCell id="HJ7bpyB-UAddalIUBTvr-22" value="" style="endArrow=none;html=1;rounded=0;entryX=0;entryY=1;entryDx=0;entryDy=0;exitX=1;exitY=0.5;exitDx=0;exitDy=0;" parent="Gr0Zq-AI6Quabplr0KPa-179" source="DIQOQRttkNtVmlvTTe51-12" target="DIQOQRttkNtVmlvTTe51-3" edge="1">
          <mxGeometry width="50" height="50" relative="1" as="geometry">
            <mxPoint x="136" y="178" as="sourcePoint" />
            <mxPoint x="207" y="241" as="targetPoint" />
          </mxGeometry>
        </mxCell>
        <mxCell id="HJ7bpyB-UAddalIUBTvr-23" value="" style="endArrow=none;html=1;rounded=0;entryX=0;entryY=1;entryDx=0;entryDy=0;exitX=0.5;exitY=0;exitDx=0;exitDy=0;" parent="Gr0Zq-AI6Quabplr0KPa-179" source="HJ7bpyB-UAddalIUBTvr-24" target="DIQOQRttkNtVmlvTTe51-5" edge="1">
          <mxGeometry width="50" height="50" relative="1" as="geometry">
            <mxPoint x="81" y="177.5" as="sourcePoint" />
            <mxPoint x="152" y="240.5" as="targetPoint" />
          </mxGeometry>
        </mxCell>
        <mxCell id="HJ7bpyB-UAddalIUBTvr-24" value="&lt;span style=&quot;font-size: 10px;&quot;&gt;Consejero&lt;/span&gt;" style="ellipse;whiteSpace=wrap;html=1;fillColor=#dae8fc;strokeColor=#6c8ebf;" parent="Gr0Zq-AI6Quabplr0KPa-179" vertex="1">
          <mxGeometry x="136" y="311" width="84" height="37" as="geometry" />
        </mxCell>
        <mxCell id="HJ7bpyB-UAddalIUBTvr-69" value="&lt;span style=&quot;font-size: 10px;&quot;&gt;Nº de Evaluaciones&lt;/span&gt;" style="ellipse;whiteSpace=wrap;html=1;fillColor=#dae8fc;strokeColor=#6c8ebf;" parent="Gr0Zq-AI6Quabplr0KPa-179" vertex="1">
          <mxGeometry x="231" y="311" width="84" height="37" as="geometry" />
        </mxCell>
        <mxCell id="HJ7bpyB-UAddalIUBTvr-70" value="" style="endArrow=none;html=1;rounded=0;entryX=0.5;entryY=0;entryDx=0;entryDy=0;exitX=1;exitY=1;exitDx=0;exitDy=0;" parent="Gr0Zq-AI6Quabplr0KPa-179" source="DIQOQRttkNtVmlvTTe51-5" target="HJ7bpyB-UAddalIUBTvr-69" edge="1">
          <mxGeometry width="50" height="50" relative="1" as="geometry">
            <mxPoint x="152" y="269.5" as="sourcePoint" />
            <mxPoint x="201" y="458.5" as="targetPoint" />
          </mxGeometry>
        </mxCell>
        <mxCell id="HJ7bpyB-UAddalIUBTvr-79" value="&lt;span style=&quot;font-size: 10px;&quot;&gt;Secciones&lt;/span&gt;" style="ellipse;whiteSpace=wrap;html=1;fillColor=#dae8fc;strokeColor=#6c8ebf;" parent="Gr0Zq-AI6Quabplr0KPa-179" vertex="1">
          <mxGeometry x="95" y="93" width="92" height="27" as="geometry" />
        </mxCell>
        <mxCell id="HJ7bpyB-UAddalIUBTvr-81" value="" style="endArrow=none;html=1;rounded=0;exitX=1;exitY=1;exitDx=0;exitDy=0;entryX=0.5;entryY=0;entryDx=0;entryDy=0;" parent="Gr0Zq-AI6Quabplr0KPa-179" source="HJ7bpyB-UAddalIUBTvr-79" target="DIQOQRttkNtVmlvTTe51-3" edge="1">
          <mxGeometry width="50" height="50" relative="1" as="geometry">
            <mxPoint x="297" y="290" as="sourcePoint" />
            <mxPoint x="347" y="240" as="targetPoint" />
          </mxGeometry>
        </mxCell>
        <mxCell id="HJ7bpyB-UAddalIUBTvr-83" value="" style="endArrow=none;html=1;rounded=0;entryX=0;entryY=1;entryDx=0;entryDy=0;exitX=1;exitY=0;exitDx=0;exitDy=0;movable=1;resizable=1;rotatable=1;deletable=1;editable=1;locked=0;connectable=1;" parent="Gr0Zq-AI6Quabplr0KPa-179" source="DIQOQRttkNtVmlvTTe51-5" target="DIQOQRttkNtVmlvTTe51-2" edge="1">
          <mxGeometry width="50" height="50" relative="1" as="geometry">
            <mxPoint x="221" y="290" as="sourcePoint" />
            <mxPoint x="271" y="240" as="targetPoint" />
          </mxGeometry>
        </mxCell>
        <mxCell id="HJ7bpyB-UAddalIUBTvr-72" value="&lt;span style=&quot;font-size: 10px;&quot;&gt;Especialidad&lt;/span&gt;" style="ellipse;whiteSpace=wrap;html=1;fillColor=#f5f5f5;fontColor=#333333;strokeColor=#666666;" parent="Gr0Zq-AI6Quabplr0KPa-179" vertex="1">
          <mxGeometry x="89" y="384" width="61" height="32" as="geometry" />
        </mxCell>
        <mxCell id="HJ7bpyB-UAddalIUBTvr-74" value="" style="endArrow=none;html=1;rounded=0;exitX=0.301;exitY=0.946;exitDx=0;exitDy=0;entryX=0.5;entryY=0;entryDx=0;entryDy=0;exitPerimeter=0;" parent="Gr0Zq-AI6Quabplr0KPa-179" source="HJ7bpyB-UAddalIUBTvr-24" target="HJ7bpyB-UAddalIUBTvr-72" edge="1">
          <mxGeometry width="50" height="50" relative="1" as="geometry">
            <mxPoint x="223" y="235.5" as="sourcePoint" />
            <mxPoint x="273" y="185.5" as="targetPoint" />
          </mxGeometry>
        </mxCell>
        <mxCell id="DIQOQRttkNtVmlvTTe51-9" value="&lt;span style=&quot;font-size: 10px;&quot;&gt;Informe&lt;/span&gt;" style="ellipse;whiteSpace=wrap;html=1;fillColor=#f5f5f5;strokeColor=#666666;fontColor=#333333;" parent="Gr0Zq-AI6Quabplr0KPa-179" vertex="1">
          <mxGeometry x="237" y="384" width="72" height="32" as="geometry" />
        </mxCell>
        <mxCell id="HJ7bpyB-UAddalIUBTvr-71" value="" style="endArrow=none;html=1;rounded=0;exitX=0.5;exitY=0;exitDx=0;exitDy=0;entryX=0.5;entryY=1;entryDx=0;entryDy=0;" parent="Gr0Zq-AI6Quabplr0KPa-179" source="DIQOQRttkNtVmlvTTe51-9" target="HJ7bpyB-UAddalIUBTvr-69" edge="1">
          <mxGeometry width="50" height="50" relative="1" as="geometry">
            <mxPoint x="265" y="217.5" as="sourcePoint" />
            <mxPoint x="315" y="167.5" as="targetPoint" />
          </mxGeometry>
        </mxCell>
        <mxCell id="HJ7bpyB-UAddalIUBTvr-86" value="&lt;span style=&quot;font-size: 10px;&quot;&gt;Destinatario&lt;/span&gt;" style="ellipse;whiteSpace=wrap;html=1;fillColor=#dae8fc;strokeColor=#6c8ebf;movable=1;resizable=1;rotatable=1;deletable=1;editable=1;locked=0;connectable=1;" parent="Gr0Zq-AI6Quabplr0KPa-179" vertex="1">
          <mxGeometry x="347" y="314" width="65" height="34" as="geometry" />
        </mxCell>
        <mxCell id="HJ7bpyB-UAddalIUBTvr-73" value="&lt;span style=&quot;font-size: 10px;&quot;&gt;Personal Militar&lt;/span&gt;" style="ellipse;whiteSpace=wrap;html=1;fillColor=#f5f5f5;fontColor=#333333;strokeColor=#666666;" parent="Gr0Zq-AI6Quabplr0KPa-179" vertex="1">
          <mxGeometry x="171.5" y="383" width="61" height="32" as="geometry" />
        </mxCell>
        <mxCell id="HJ7bpyB-UAddalIUBTvr-75" value="" style="endArrow=none;html=1;rounded=0;exitX=0.5;exitY=1;exitDx=0;exitDy=0;entryX=0.5;entryY=0;entryDx=0;entryDy=0;" parent="Gr0Zq-AI6Quabplr0KPa-179" source="HJ7bpyB-UAddalIUBTvr-24" target="HJ7bpyB-UAddalIUBTvr-73" edge="1">
          <mxGeometry width="50" height="50" relative="1" as="geometry">
            <mxPoint x="215" y="261.5" as="sourcePoint" />
            <mxPoint x="265" y="211.5" as="targetPoint" />
          </mxGeometry>
        </mxCell>
        <mxCell id="HJ7bpyB-UAddalIUBTvr-87" value="&lt;span style=&quot;font-size: 10px;&quot;&gt;Suscriptor&lt;/span&gt;" style="ellipse;whiteSpace=wrap;html=1;fillColor=#dae8fc;strokeColor=#6c8ebf;" parent="Gr0Zq-AI6Quabplr0KPa-179" vertex="1">
          <mxGeometry x="548" y="321" width="65" height="34" as="geometry" />
        </mxCell>
        <mxCell id="HJ7bpyB-UAddalIUBTvr-88" value="&lt;span style=&quot;font-size: 10px;&quot;&gt;Civil&lt;/span&gt;" style="ellipse;whiteSpace=wrap;html=1;fillColor=#f5f5f5;fontColor=#333333;strokeColor=#666666;" parent="Gr0Zq-AI6Quabplr0KPa-179" vertex="1">
          <mxGeometry x="468" y="321" width="65" height="34" as="geometry" />
        </mxCell>
        <mxCell id="HJ7bpyB-UAddalIUBTvr-89" value="&lt;span style=&quot;font-size: 10px;&quot;&gt;Internacional&lt;/span&gt;" style="ellipse;whiteSpace=wrap;html=1;fillColor=#f5f5f5;fontColor=#333333;strokeColor=#666666;movable=1;resizable=1;rotatable=1;deletable=1;editable=1;locked=0;connectable=1;" parent="Gr0Zq-AI6Quabplr0KPa-179" vertex="1">
          <mxGeometry x="390.5" y="380" width="75" height="36" as="geometry" />
        </mxCell>
        <mxCell id="DIQOQRttkNtVmlvTTe51-46" value="&lt;span style=&quot;font-size: 10px;&quot;&gt;Número de páginas&lt;/span&gt;" style="ellipse;whiteSpace=wrap;html=1;fillColor=#f5f5f5;fontColor=#333333;strokeColor=#666666;" parent="Gr0Zq-AI6Quabplr0KPa-179" vertex="1">
          <mxGeometry x="10.75" y="202.5" width="68" height="46" as="geometry" />
        </mxCell>
        <mxCell id="HJ7bpyB-UAddalIUBTvr-85" value="" style="endArrow=none;html=1;rounded=0;exitX=1;exitY=0.5;exitDx=0;exitDy=0;entryX=0;entryY=0.5;entryDx=0;entryDy=0;" parent="Gr0Zq-AI6Quabplr0KPa-179" source="DIQOQRttkNtVmlvTTe51-46" target="DIQOQRttkNtVmlvTTe51-12" edge="1">
          <mxGeometry width="50" height="50" relative="1" as="geometry">
            <mxPoint x="255" y="344" as="sourcePoint" />
            <mxPoint x="305" y="294" as="targetPoint" />
          </mxGeometry>
        </mxCell>
        <mxCell id="DIQOQRttkNtVmlvTTe51-10" value="&lt;span style=&quot;font-size: 10px;&quot;&gt;Número de caracteres&lt;/span&gt;" style="ellipse;whiteSpace=wrap;html=1;fillColor=#f5f5f5;fontColor=#333333;strokeColor=#666666;" parent="Gr0Zq-AI6Quabplr0KPa-179" vertex="1">
          <mxGeometry x="8.75" y="263" width="74.5" height="38" as="geometry" />
        </mxCell>
        <mxCell id="HJ7bpyB-UAddalIUBTvr-84" value="" style="endArrow=none;html=1;rounded=0;exitX=1;exitY=0.5;exitDx=0;exitDy=0;entryX=0;entryY=1;entryDx=0;entryDy=0;" parent="Gr0Zq-AI6Quabplr0KPa-179" source="DIQOQRttkNtVmlvTTe51-10" target="DIQOQRttkNtVmlvTTe51-12" edge="1">
          <mxGeometry width="50" height="50" relative="1" as="geometry">
            <mxPoint x="255" y="344" as="sourcePoint" />
            <mxPoint x="305" y="294" as="targetPoint" />
          </mxGeometry>
        </mxCell>
        <mxCell id="HJ7bpyB-UAddalIUBTvr-129" value="&lt;span style=&quot;font-size: 10px;&quot;&gt;Reserva&lt;/span&gt;" style="ellipse;whiteSpace=wrap;html=1;fillColor=#f5f5f5;fontColor=#333333;strokeColor=#666666;" parent="Gr0Zq-AI6Quabplr0KPa-179" vertex="1">
          <mxGeometry x="8.75" y="162.75" width="72" height="25.5" as="geometry" />
        </mxCell>
        <mxCell id="HJ7bpyB-UAddalIUBTvr-130" value="&lt;span style=&quot;font-size: 10px;&quot;&gt;Aceptados&lt;/span&gt;" style="ellipse;whiteSpace=wrap;html=1;fillColor=#f5f5f5;fontColor=#333333;strokeColor=#666666;" parent="Gr0Zq-AI6Quabplr0KPa-179" vertex="1">
          <mxGeometry x="8.75" y="115" width="69" height="36" as="geometry" />
        </mxCell>
        <mxCell id="HJ7bpyB-UAddalIUBTvr-131" value="" style="endArrow=none;html=1;rounded=0;entryX=0;entryY=0;entryDx=0;entryDy=0;exitX=1;exitY=0.5;exitDx=0;exitDy=0;" parent="Gr0Zq-AI6Quabplr0KPa-179" source="HJ7bpyB-UAddalIUBTvr-130" target="DIQOQRttkNtVmlvTTe51-28" edge="1">
          <mxGeometry width="50" height="50" relative="1" as="geometry">
            <mxPoint x="255" y="287" as="sourcePoint" />
            <mxPoint x="305" y="237" as="targetPoint" />
          </mxGeometry>
        </mxCell>
        <mxCell id="HJ7bpyB-UAddalIUBTvr-132" value="" style="endArrow=none;html=1;rounded=0;entryX=0;entryY=1;entryDx=0;entryDy=0;exitX=1;exitY=0.5;exitDx=0;exitDy=0;" parent="Gr0Zq-AI6Quabplr0KPa-179" source="HJ7bpyB-UAddalIUBTvr-129" target="DIQOQRttkNtVmlvTTe51-28" edge="1">
          <mxGeometry width="50" height="50" relative="1" as="geometry">
            <mxPoint x="255" y="287" as="sourcePoint" />
            <mxPoint x="305" y="237" as="targetPoint" />
          </mxGeometry>
        </mxCell>
        <mxCell id="HJ7bpyB-UAddalIUBTvr-133" value="" style="endArrow=none;html=1;rounded=0;entryX=1;entryY=1;entryDx=0;entryDy=0;movable=1;resizable=1;rotatable=1;deletable=1;editable=1;locked=0;connectable=1;" parent="Gr0Zq-AI6Quabplr0KPa-179" source="DIQOQRttkNtVmlvTTe51-4" target="DIQOQRttkNtVmlvTTe51-2" edge="1">
          <mxGeometry width="50" height="50" relative="1" as="geometry">
            <mxPoint x="254" y="306" as="sourcePoint" />
            <mxPoint x="304" y="256" as="targetPoint" />
          </mxGeometry>
        </mxCell>
        <mxCell id="HJ7bpyB-UAddalIUBTvr-134" value="" style="endArrow=none;html=1;rounded=0;exitX=1;exitY=0.5;exitDx=0;exitDy=0;entryX=0.5;entryY=1;entryDx=0;entryDy=0;movable=1;resizable=1;rotatable=1;deletable=1;editable=1;locked=0;connectable=1;" parent="Gr0Zq-AI6Quabplr0KPa-179" source="HJ7bpyB-UAddalIUBTvr-86" target="DIQOQRttkNtVmlvTTe51-4" edge="1">
          <mxGeometry width="50" height="50" relative="1" as="geometry">
            <mxPoint x="254" y="306" as="sourcePoint" />
            <mxPoint x="304" y="256" as="targetPoint" />
          </mxGeometry>
        </mxCell>
        <mxCell id="HJ7bpyB-UAddalIUBTvr-135" value="" style="endArrow=none;html=1;rounded=0;entryX=1;entryY=0.5;entryDx=0;entryDy=0;exitX=0;exitY=0;exitDx=0;exitDy=0;movable=1;resizable=1;rotatable=1;deletable=1;editable=1;locked=0;connectable=1;" parent="Gr0Zq-AI6Quabplr0KPa-179" source="HJ7bpyB-UAddalIUBTvr-87" target="DIQOQRttkNtVmlvTTe51-4" edge="1">
          <mxGeometry width="50" height="50" relative="1" as="geometry">
            <mxPoint x="254" y="306" as="sourcePoint" />
            <mxPoint x="304" y="256" as="targetPoint" />
          </mxGeometry>
        </mxCell>
        <mxCell id="HJ7bpyB-UAddalIUBTvr-136" value="" style="endArrow=none;html=1;rounded=0;entryX=0.5;entryY=0;entryDx=0;entryDy=0;exitX=1;exitY=1;exitDx=0;exitDy=0;movable=1;resizable=1;rotatable=1;deletable=1;editable=1;locked=0;connectable=1;" parent="Gr0Zq-AI6Quabplr0KPa-179" source="HJ7bpyB-UAddalIUBTvr-86" target="HJ7bpyB-UAddalIUBTvr-89" edge="1">
          <mxGeometry width="50" height="50" relative="1" as="geometry">
            <mxPoint x="254" y="306" as="sourcePoint" />
            <mxPoint x="304" y="256" as="targetPoint" />
          </mxGeometry>
        </mxCell>
        <mxCell id="HJ7bpyB-UAddalIUBTvr-138" value="" style="endArrow=none;html=1;rounded=0;entryX=1;entryY=0.5;entryDx=0;entryDy=0;exitX=0;exitY=0.5;exitDx=0;exitDy=0;" parent="Gr0Zq-AI6Quabplr0KPa-179" source="HJ7bpyB-UAddalIUBTvr-87" target="HJ7bpyB-UAddalIUBTvr-88" edge="1">
          <mxGeometry width="50" height="50" relative="1" as="geometry">
            <mxPoint x="254" y="306" as="sourcePoint" />
            <mxPoint x="304" y="256" as="targetPoint" />
          </mxGeometry>
        </mxCell>
        <mxCell id="HJ7bpyB-UAddalIUBTvr-139" value="" style="endArrow=none;html=1;rounded=0;exitX=0;exitY=0.5;exitDx=0;exitDy=0;entryX=1;entryY=0.5;entryDx=0;entryDy=0;" parent="Gr0Zq-AI6Quabplr0KPa-179" source="DIQOQRttkNtVmlvTTe51-27" target="HJ7bpyB-UAddalIUBTvr-87" edge="1">
          <mxGeometry width="50" height="50" relative="1" as="geometry">
            <mxPoint x="254" y="306" as="sourcePoint" />
            <mxPoint x="304" y="256" as="targetPoint" />
          </mxGeometry>
        </mxCell>
        <mxCell id="HJ7bpyB-UAddalIUBTvr-140" value="" style="endArrow=none;html=1;rounded=0;entryX=1;entryY=1;entryDx=0;entryDy=0;exitX=0.5;exitY=0;exitDx=0;exitDy=0;" parent="Gr0Zq-AI6Quabplr0KPa-179" source="DIQOQRttkNtVmlvTTe51-13" target="HJ7bpyB-UAddalIUBTvr-87" edge="1">
          <mxGeometry width="50" height="50" relative="1" as="geometry">
            <mxPoint x="254" y="306" as="sourcePoint" />
            <mxPoint x="304" y="256" as="targetPoint" />
          </mxGeometry>
        </mxCell>
        <mxCell id="HJ7bpyB-UAddalIUBTvr-141" value="" style="endArrow=none;html=1;rounded=0;entryX=0.5;entryY=0;entryDx=0;entryDy=0;exitX=0.5;exitY=1;exitDx=0;exitDy=0;" parent="Gr0Zq-AI6Quabplr0KPa-179" source="HJ7bpyB-UAddalIUBTvr-87" target="DIQOQRttkNtVmlvTTe51-11" edge="1">
          <mxGeometry width="50" height="50" relative="1" as="geometry">
            <mxPoint x="254" y="306" as="sourcePoint" />
            <mxPoint x="304" y="256" as="targetPoint" />
          </mxGeometry>
        </mxCell>
        <mxCell id="HJ7bpyB-UAddalIUBTvr-142" value="&lt;span style=&quot;font-size: 10px;&quot;&gt;Autores&lt;/span&gt;" style="ellipse;whiteSpace=wrap;html=1;fillColor=#d5e8d4;strokeColor=#82b366;fontStyle=1;movable=1;resizable=1;rotatable=1;deletable=1;editable=1;locked=0;connectable=1;" parent="Gr0Zq-AI6Quabplr0KPa-179" vertex="1">
          <mxGeometry x="309" y="131" width="65" height="28" as="geometry" />
        </mxCell>
        <mxCell id="HJ7bpyB-UAddalIUBTvr-143" value="&lt;span style=&quot;font-size: 10px;&quot;&gt;Nacional&lt;/span&gt;" style="ellipse;whiteSpace=wrap;html=1;fillColor=#f5f5f5;fontColor=#333333;strokeColor=#666666;" parent="Gr0Zq-AI6Quabplr0KPa-179" vertex="1">
          <mxGeometry x="315" y="381" width="68" height="36" as="geometry" />
        </mxCell>
        <mxCell id="HJ7bpyB-UAddalIUBTvr-144" value="" style="endArrow=none;html=1;rounded=0;entryX=0;entryY=1;entryDx=0;entryDy=0;exitX=0.5;exitY=0;exitDx=0;exitDy=0;movable=1;resizable=1;rotatable=1;deletable=1;editable=1;locked=0;connectable=1;" parent="Gr0Zq-AI6Quabplr0KPa-179" source="HJ7bpyB-UAddalIUBTvr-143" target="HJ7bpyB-UAddalIUBTvr-86" edge="1">
          <mxGeometry width="50" height="50" relative="1" as="geometry">
            <mxPoint x="277" y="291" as="sourcePoint" />
            <mxPoint x="327" y="241" as="targetPoint" />
          </mxGeometry>
        </mxCell>
        <mxCell id="HJ7bpyB-UAddalIUBTvr-145" value="" style="endArrow=none;html=1;rounded=0;entryX=0.5;entryY=1;entryDx=0;entryDy=0;exitX=0.5;exitY=0;exitDx=0;exitDy=0;movable=1;resizable=1;rotatable=1;deletable=1;editable=1;locked=0;connectable=1;" parent="Gr0Zq-AI6Quabplr0KPa-179" source="DIQOQRttkNtVmlvTTe51-2" target="HJ7bpyB-UAddalIUBTvr-142" edge="1">
          <mxGeometry width="50" height="50" relative="1" as="geometry">
            <mxPoint x="344" y="292" as="sourcePoint" />
            <mxPoint x="394" y="242" as="targetPoint" />
          </mxGeometry>
        </mxCell>
        <mxCell id="HJ7bpyB-UAddalIUBTvr-146" value="&lt;span style=&quot;font-size: 10px;&quot;&gt;Civiles&lt;/span&gt;" style="ellipse;whiteSpace=wrap;html=1;fillColor=#dae8fc;strokeColor=#6c8ebf;movable=1;resizable=1;rotatable=1;deletable=1;editable=1;locked=0;connectable=1;" parent="Gr0Zq-AI6Quabplr0KPa-179" vertex="1">
          <mxGeometry x="110.5" y="49" width="61" height="26" as="geometry" />
        </mxCell>
        <mxCell id="HJ7bpyB-UAddalIUBTvr-209" value="&lt;span style=&quot;font-size: 10px;&quot;&gt;Documentos&lt;/span&gt;" style="ellipse;whiteSpace=wrap;html=1;fillColor=#dae8fc;strokeColor=#6c8ebf;movable=1;resizable=1;rotatable=1;deletable=1;editable=1;locked=0;connectable=1;" parent="Gr0Zq-AI6Quabplr0KPa-179" vertex="1">
          <mxGeometry x="274" y="46" width="69" height="32" as="geometry" />
        </mxCell>
        <mxCell id="HJ7bpyB-UAddalIUBTvr-208" value="&lt;span style=&quot;font-size: 10px;&quot;&gt;Militares&lt;/span&gt;" style="ellipse;whiteSpace=wrap;html=1;fillColor=#dae8fc;strokeColor=#6c8ebf;movable=1;resizable=1;rotatable=1;deletable=1;editable=1;locked=0;connectable=1;" parent="Gr0Zq-AI6Quabplr0KPa-179" vertex="1">
          <mxGeometry x="200.75" y="45" width="49.5" height="30" as="geometry" />
        </mxCell>
        <mxCell id="HJ7bpyB-UAddalIUBTvr-210" value="" style="endArrow=none;html=1;rounded=0;entryX=1;entryY=1;entryDx=0;entryDy=0;exitX=0;exitY=0.5;exitDx=0;exitDy=0;movable=1;resizable=1;rotatable=1;deletable=1;editable=1;locked=0;connectable=1;" parent="Gr0Zq-AI6Quabplr0KPa-179" source="HJ7bpyB-UAddalIUBTvr-142" target="HJ7bpyB-UAddalIUBTvr-146" edge="1">
          <mxGeometry width="50" height="50" relative="1" as="geometry">
            <mxPoint x="357" y="282" as="sourcePoint" />
            <mxPoint x="407" y="232" as="targetPoint" />
          </mxGeometry>
        </mxCell>
        <mxCell id="HJ7bpyB-UAddalIUBTvr-211" value="" style="endArrow=none;html=1;rounded=0;entryX=0.5;entryY=1;entryDx=0;entryDy=0;movable=1;resizable=1;rotatable=1;deletable=1;editable=1;locked=0;connectable=1;" parent="Gr0Zq-AI6Quabplr0KPa-179" source="HJ7bpyB-UAddalIUBTvr-142" target="HJ7bpyB-UAddalIUBTvr-208" edge="1">
          <mxGeometry width="50" height="50" relative="1" as="geometry">
            <mxPoint x="357" y="282" as="sourcePoint" />
            <mxPoint x="407" y="232" as="targetPoint" />
          </mxGeometry>
        </mxCell>
        <mxCell id="HJ7bpyB-UAddalIUBTvr-212" value="" style="endArrow=none;html=1;rounded=0;entryX=0.5;entryY=1;entryDx=0;entryDy=0;movable=1;resizable=1;rotatable=1;deletable=1;editable=1;locked=0;connectable=1;exitX=0.5;exitY=0;exitDx=0;exitDy=0;" parent="Gr0Zq-AI6Quabplr0KPa-179" source="HJ7bpyB-UAddalIUBTvr-142" target="HJ7bpyB-UAddalIUBTvr-209" edge="1">
          <mxGeometry width="50" height="50" relative="1" as="geometry">
            <mxPoint x="354" y="131" as="sourcePoint" />
            <mxPoint x="407" y="232" as="targetPoint" />
          </mxGeometry>
        </mxCell>
        <mxCell id="HJ7bpyB-UAddalIUBTvr-213" value="&lt;span style=&quot;font-size: 10px;&quot;&gt;Artículos&lt;/span&gt;" style="ellipse;whiteSpace=wrap;html=1;fillColor=#d5e8d4;strokeColor=#82b366;fontStyle=1" parent="Gr0Zq-AI6Quabplr0KPa-179" vertex="1">
          <mxGeometry x="451" y="158" width="59" height="35" as="geometry" />
        </mxCell>
        <mxCell id="HJ7bpyB-UAddalIUBTvr-215" value="&lt;span style=&quot;font-size: 10px;&quot;&gt;Documentos&lt;/span&gt;" style="ellipse;whiteSpace=wrap;html=1;fillColor=#dae8fc;strokeColor=#6c8ebf;" parent="Gr0Zq-AI6Quabplr0KPa-179" vertex="1">
          <mxGeometry x="544.5" y="171" width="72" height="39" as="geometry" />
        </mxCell>
        <mxCell id="HJ7bpyB-UAddalIUBTvr-216" value="&lt;span style=&quot;font-size: 10px;&quot;&gt;Estado&lt;/span&gt;" style="ellipse;whiteSpace=wrap;html=1;fillColor=#dae8fc;strokeColor=#6c8ebf;" parent="Gr0Zq-AI6Quabplr0KPa-179" vertex="1">
          <mxGeometry x="544.5" y="216" width="72" height="39" as="geometry" />
        </mxCell>
        <mxCell id="HJ7bpyB-UAddalIUBTvr-287" value="&lt;span style=&quot;font-size: 10px;&quot;&gt;Tipo&lt;/span&gt;" style="ellipse;whiteSpace=wrap;html=1;fillColor=#dae8fc;strokeColor=#6c8ebf;" parent="Gr0Zq-AI6Quabplr0KPa-179" vertex="1">
          <mxGeometry x="548" y="89.5" width="65" height="34" as="geometry" />
        </mxCell>
        <mxCell id="HJ7bpyB-UAddalIUBTvr-288" value="&lt;span style=&quot;font-size: 10px;&quot;&gt;Datos de facturación&lt;/span&gt;" style="ellipse;whiteSpace=wrap;html=1;fillColor=#dae8fc;strokeColor=#6c8ebf;" parent="Gr0Zq-AI6Quabplr0KPa-179" vertex="1">
          <mxGeometry x="544.5" y="260" width="72" height="39" as="geometry" />
        </mxCell>
        <mxCell id="HJ7bpyB-UAddalIUBTvr-289" value="" style="endArrow=none;html=1;rounded=0;entryX=0.709;entryY=0.029;entryDx=0;entryDy=0;exitX=0;exitY=0.5;exitDx=0;exitDy=0;entryPerimeter=0;" parent="Gr0Zq-AI6Quabplr0KPa-179" source="HJ7bpyB-UAddalIUBTvr-287" target="HJ7bpyB-UAddalIUBTvr-213" edge="1">
          <mxGeometry width="50" height="50" relative="1" as="geometry">
            <mxPoint x="357" y="282" as="sourcePoint" />
            <mxPoint x="407" y="232" as="targetPoint" />
          </mxGeometry>
        </mxCell>
        <mxCell id="HJ7bpyB-UAddalIUBTvr-291" value="" style="endArrow=none;html=1;rounded=0;entryX=0;entryY=0.5;entryDx=0;entryDy=0;exitX=1;exitY=0.5;exitDx=0;exitDy=0;" parent="Gr0Zq-AI6Quabplr0KPa-179" source="HJ7bpyB-UAddalIUBTvr-213" target="HJ7bpyB-UAddalIUBTvr-215" edge="1">
          <mxGeometry width="50" height="50" relative="1" as="geometry">
            <mxPoint x="357" y="282" as="sourcePoint" />
            <mxPoint x="407" y="232" as="targetPoint" />
          </mxGeometry>
        </mxCell>
        <mxCell id="HJ7bpyB-UAddalIUBTvr-292" value="" style="endArrow=none;html=1;rounded=0;entryX=1;entryY=1;entryDx=0;entryDy=0;exitX=0;exitY=0.5;exitDx=0;exitDy=0;" parent="Gr0Zq-AI6Quabplr0KPa-179" source="HJ7bpyB-UAddalIUBTvr-216" target="HJ7bpyB-UAddalIUBTvr-213" edge="1">
          <mxGeometry width="50" height="50" relative="1" as="geometry">
            <mxPoint x="357" y="282" as="sourcePoint" />
            <mxPoint x="407" y="232" as="targetPoint" />
          </mxGeometry>
        </mxCell>
        <mxCell id="HJ7bpyB-UAddalIUBTvr-293" value="" style="endArrow=none;html=1;rounded=0;entryX=1;entryY=0;entryDx=0;entryDy=0;exitX=0;exitY=0.5;exitDx=0;exitDy=0;" parent="Gr0Zq-AI6Quabplr0KPa-179" source="HJ7bpyB-UAddalIUBTvr-288" target="DIQOQRttkNtVmlvTTe51-4" edge="1">
          <mxGeometry width="50" height="50" relative="1" as="geometry">
            <mxPoint x="357" y="282" as="sourcePoint" />
            <mxPoint x="407" y="232" as="targetPoint" />
          </mxGeometry>
        </mxCell>
        <mxCell id="HJ7bpyB-UAddalIUBTvr-294" value="" style="endArrow=none;html=1;rounded=0;entryX=1;entryY=0;entryDx=0;entryDy=0;exitX=0;exitY=0.5;exitDx=0;exitDy=0;movable=1;resizable=1;rotatable=1;deletable=1;editable=1;locked=0;connectable=1;" parent="Gr0Zq-AI6Quabplr0KPa-179" source="HJ7bpyB-UAddalIUBTvr-213" target="DIQOQRttkNtVmlvTTe51-2" edge="1">
          <mxGeometry width="50" height="50" relative="1" as="geometry">
            <mxPoint x="357" y="282" as="sourcePoint" />
            <mxPoint x="407" y="232" as="targetPoint" />
          </mxGeometry>
        </mxCell>
        <mxCell id="6343irb46_uTYr4Goo3B-1" value="&lt;span style=&quot;font-size: 10px;&quot;&gt;Militar&lt;/span&gt;" style="ellipse;whiteSpace=wrap;html=1;fillColor=#f5f5f5;fontColor=#333333;strokeColor=#666666;" parent="Gr0Zq-AI6Quabplr0KPa-179" vertex="1">
          <mxGeometry x="471" y="383" width="65" height="34" as="geometry" />
        </mxCell>
        <mxCell id="6343irb46_uTYr4Goo3B-2" value="&lt;span style=&quot;font-size: 10px;&quot;&gt;Temática&lt;/span&gt;" style="ellipse;whiteSpace=wrap;html=1;fillColor=#dae8fc;strokeColor=#6c8ebf;" parent="Gr0Zq-AI6Quabplr0KPa-179" vertex="1">
          <mxGeometry x="541.5" y="40.5" width="75" height="39" as="geometry" />
        </mxCell>
        <mxCell id="6343irb46_uTYr4Goo3B-4" value="" style="endArrow=none;html=1;rounded=0;entryX=1;entryY=0;entryDx=0;entryDy=0;exitX=0.066;exitY=0.731;exitDx=0;exitDy=0;exitPerimeter=0;" parent="Gr0Zq-AI6Quabplr0KPa-179" source="HJ7bpyB-UAddalIUBTvr-87" target="6343irb46_uTYr4Goo3B-1" edge="1">
          <mxGeometry width="50" height="50" relative="1" as="geometry">
            <mxPoint x="628" y="310" as="sourcePoint" />
            <mxPoint x="602" y="319" as="targetPoint" />
          </mxGeometry>
        </mxCell>
        <mxCell id="6343irb46_uTYr4Goo3B-3" value="" style="endArrow=none;html=1;rounded=0;exitX=0;exitY=0.5;exitDx=0;exitDy=0;entryX=0.5;entryY=0;entryDx=0;entryDy=0;" parent="Gr0Zq-AI6Quabplr0KPa-179" source="6343irb46_uTYr4Goo3B-2" target="HJ7bpyB-UAddalIUBTvr-213" edge="1">
          <mxGeometry width="50" height="50" relative="1" as="geometry">
            <mxPoint x="593" y="142" as="sourcePoint" />
            <mxPoint x="443" y="185" as="targetPoint" />
          </mxGeometry>
        </mxCell>
        <mxCell id="e92DNlCqijwbQEPnBxvn-1" value="&lt;span style=&quot;font-size: 10px;&quot;&gt;Datos&lt;/span&gt;" style="ellipse;whiteSpace=wrap;html=1;fillColor=#dae8fc;strokeColor=#6c8ebf;movable=1;resizable=1;rotatable=1;deletable=1;editable=1;locked=0;connectable=1;" parent="Gr0Zq-AI6Quabplr0KPa-179" vertex="1">
          <mxGeometry x="362" y="46" width="69" height="32" as="geometry" />
        </mxCell>
        <mxCell id="e92DNlCqijwbQEPnBxvn-3" value="" style="endArrow=none;html=1;rounded=0;entryX=0.5;entryY=1;entryDx=0;entryDy=0;exitX=1;exitY=0;exitDx=0;exitDy=0;movable=1;resizable=1;rotatable=1;deletable=1;editable=1;locked=0;connectable=1;" parent="Gr0Zq-AI6Quabplr0KPa-179" source="HJ7bpyB-UAddalIUBTvr-142" target="e92DNlCqijwbQEPnBxvn-1" edge="1">
          <mxGeometry width="50" height="50" relative="1" as="geometry">
            <mxPoint x="413" y="190" as="sourcePoint" />
            <mxPoint x="430" y="149" as="targetPoint" />
          </mxGeometry>
        </mxCell>
        <mxCell id="e92DNlCqijwbQEPnBxvn-6" value="&lt;span style=&quot;font-size: 10px;&quot;&gt;Planificación&lt;/span&gt;" style="ellipse;whiteSpace=wrap;html=1;fillColor=#dae8fc;strokeColor=#6c8ebf;" parent="Gr0Zq-AI6Quabplr0KPa-179" vertex="1">
          <mxGeometry x="99" y="262" width="70.25" height="35" as="geometry" />
        </mxCell>
        <mxCell id="e92DNlCqijwbQEPnBxvn-7" value="&lt;span style=&quot;font-size: 10px;&quot;&gt;Pagador&lt;/span&gt;" style="ellipse;whiteSpace=wrap;html=1;fillColor=#f5f5f5;fontColor=#333333;strokeColor=#666666;" parent="Gr0Zq-AI6Quabplr0KPa-179" vertex="1">
          <mxGeometry x="637" y="263" width="65" height="34" as="geometry" />
        </mxCell>
        <mxCell id="e92DNlCqijwbQEPnBxvn-10" value="" style="endArrow=none;html=1;rounded=0;exitX=0;exitY=0.5;exitDx=0;exitDy=0;entryX=1;entryY=0.5;entryDx=0;entryDy=0;" parent="Gr0Zq-AI6Quabplr0KPa-179" source="e92DNlCqijwbQEPnBxvn-7" target="HJ7bpyB-UAddalIUBTvr-288" edge="1">
          <mxGeometry width="50" height="50" relative="1" as="geometry">
            <mxPoint x="660" y="306" as="sourcePoint" />
            <mxPoint x="636" y="306" as="targetPoint" />
          </mxGeometry>
        </mxCell>
        <mxCell id="e92DNlCqijwbQEPnBxvn-11" value="&lt;span style=&quot;font-size: 10px;&quot;&gt;Estado&lt;/span&gt;" style="ellipse;whiteSpace=wrap;html=1;fillColor=#dae8fc;strokeColor=#6c8ebf;" parent="Gr0Zq-AI6Quabplr0KPa-179" vertex="1">
          <mxGeometry x="431" y="241" width="64" height="28" as="geometry" />
        </mxCell>
        <mxCell id="e92DNlCqijwbQEPnBxvn-12" value="" style="endArrow=none;html=1;rounded=0;entryX=0.5;entryY=0;entryDx=0;entryDy=0;exitX=0.5;exitY=1;exitDx=0;exitDy=0;" parent="Gr0Zq-AI6Quabplr0KPa-179" source="e92DNlCqijwbQEPnBxvn-11" target="DIQOQRttkNtVmlvTTe51-4" edge="1">
          <mxGeometry width="50" height="50" relative="1" as="geometry">
            <mxPoint x="525" y="435" as="sourcePoint" />
            <mxPoint x="471" y="445" as="targetPoint" />
          </mxGeometry>
        </mxCell>
        <mxCell id="e92DNlCqijwbQEPnBxvn-13" value="&lt;span style=&quot;font-size: 10px;&quot;&gt;Ejemplar de cortesía&lt;/span&gt;" style="ellipse;whiteSpace=wrap;html=1;fillColor=#dae8fc;strokeColor=#6c8ebf;movable=1;resizable=1;rotatable=1;deletable=1;editable=1;locked=0;connectable=1;" parent="Gr0Zq-AI6Quabplr0KPa-179" vertex="1">
          <mxGeometry x="443.5" y="46" width="74" height="32" as="geometry" />
        </mxCell>
        <mxCell id="e92DNlCqijwbQEPnBxvn-14" value="&lt;span style=&quot;font-size: 10px;&quot;&gt;Etiquetas&lt;/span&gt;" style="ellipse;whiteSpace=wrap;html=1;fillColor=#dae8fc;strokeColor=#6c8ebf;" parent="Gr0Zq-AI6Quabplr0KPa-179" vertex="1">
          <mxGeometry x="347" y="273" width="64" height="28" as="geometry" />
        </mxCell>
        <mxCell id="e92DNlCqijwbQEPnBxvn-5" value="" style="endArrow=none;html=1;rounded=0;entryX=0.5;entryY=1;entryDx=0;entryDy=0;movable=1;resizable=1;rotatable=1;deletable=1;editable=1;locked=0;connectable=1;exitX=1;exitY=0.5;exitDx=0;exitDy=0;" parent="Gr0Zq-AI6Quabplr0KPa-179" source="e92DNlCqijwbQEPnBxvn-6" target="DIQOQRttkNtVmlvTTe51-3" edge="1">
          <mxGeometry width="50" height="50" relative="1" as="geometry">
            <mxPoint x="230" y="222" as="sourcePoint" />
            <mxPoint x="344" y="321" as="targetPoint" />
          </mxGeometry>
        </mxCell>
        <mxCell id="e92DNlCqijwbQEPnBxvn-15" value="" style="endArrow=none;html=1;rounded=0;entryX=0;entryY=1;entryDx=0;entryDy=0;exitX=1;exitY=0.5;exitDx=0;exitDy=0;movable=1;resizable=1;rotatable=1;deletable=1;editable=1;locked=0;connectable=1;" parent="Gr0Zq-AI6Quabplr0KPa-179" source="HJ7bpyB-UAddalIUBTvr-142" target="e92DNlCqijwbQEPnBxvn-13" edge="1">
          <mxGeometry width="50" height="50" relative="1" as="geometry">
            <mxPoint x="379" y="225" as="sourcePoint" />
            <mxPoint x="399" y="168" as="targetPoint" />
          </mxGeometry>
        </mxCell>
        <mxCell id="e92DNlCqijwbQEPnBxvn-16" value="" style="endArrow=none;html=1;rounded=0;entryX=1;entryY=1;entryDx=0;entryDy=0;movable=1;resizable=1;rotatable=1;deletable=1;editable=1;locked=0;connectable=1;exitX=0;exitY=0.5;exitDx=0;exitDy=0;" parent="Gr0Zq-AI6Quabplr0KPa-179" source="DIQOQRttkNtVmlvTTe51-4" target="e92DNlCqijwbQEPnBxvn-14" edge="1">
          <mxGeometry width="50" height="50" relative="1" as="geometry">
            <mxPoint x="527" y="475" as="sourcePoint" />
            <mxPoint x="461" y="436" as="targetPoint" />
          </mxGeometry>
        </mxCell>
        <mxCell id="tYNjLgcUysT0pGiw8Msw-1" value="&lt;span style=&quot;font-size: 10px;&quot;&gt;Certificado de Pago&lt;/span&gt;" style="ellipse;whiteSpace=wrap;html=1;fillColor=#dae8fc;strokeColor=#6c8ebf;" vertex="1" parent="Gr0Zq-AI6Quabplr0KPa-179">
          <mxGeometry x="549.5" y="128" width="60.5" height="40" as="geometry" />
        </mxCell>
        <mxCell id="tYNjLgcUysT0pGiw8Msw-2" value="" style="endArrow=none;html=1;rounded=0;entryX=1;entryY=0;entryDx=0;entryDy=0;exitX=0;exitY=0.5;exitDx=0;exitDy=0;" edge="1" parent="Gr0Zq-AI6Quabplr0KPa-179" source="tYNjLgcUysT0pGiw8Msw-1" target="HJ7bpyB-UAddalIUBTvr-213">
          <mxGeometry width="50" height="50" relative="1" as="geometry">
            <mxPoint x="579" y="156" as="sourcePoint" />
            <mxPoint x="524" y="208" as="targetPoint" />
          </mxGeometry>
        </mxCell>
      </root>
    </mxGraphModel>
  </diagram>
</mxfile>
